<?xml version="1.0" encoding="utf-8"?>
<!-- Generator: Adobe Illustrator 16.0.0, SVG Export Plug-In . SVG Version: 6.00 Build 0)  -->
<!DOCTYPE svg PUBLIC "-//W3C//DTD SVG 1.1//EN" "http://www.w3.org/Graphics/SVG/1.1/DTD/svg11.dtd">
<svg version="1.1"
	 id="svg2" xmlns:dc="http://purl.org/dc/elements/1.1/" xmlns:cc="http://creativecommons.org/ns#" xmlns:rdf="http://www.w3.org/1999/02/22-rdf-syntax-ns#" xmlns:svg="http://www.w3.org/2000/svg" xmlns:sodipodi="http://sodipodi.sourceforge.net/DTD/sodipodi-0.dtd" xmlns:inkscape="http://www.inkscape.org/namespaces/inkscape" sodipodi:docname="InfoJr - Negativo" inkscape:version="0.48.0 r9654"
	 xmlns="http://www.w3.org/2000/svg" xmlns:xlink="http://www.w3.org/1999/xlink" x="0px" y="0px" width="695.997px"
	 height="303.128px" viewBox="28.245 288.701 695.997 303.128" enable-background="new 28.245 288.701 695.997 303.128"
	 xml:space="preserve">
<sodipodi:namedview  showgrid="false" inkscape:cy="520" inkscape:cx="350" inkscape:zoom="0.71230469" borderopacity="1.0" bordercolor="#666666" pagecolor="#ffffff" id="base" inkscape:window-maximized="1" inkscape:window-y="-8" inkscape:current-layer="layer1" inkscape:window-x="-8" inkscape:pageshadow="2" inkscape:document-units="px" inkscape:pageopacity="0.0" inkscape:window-height="720" inkscape:window-width="1280">
	</sodipodi:namedview>
<g id="layer1" inkscape:label="Camada 1" inkscape:groupmode="layer">
	<path id="path72" inkscape:connector-curvature="0" display="none" fill="#231F20" d="M28.245,288.701h695.997v303.128H28.245
		V288.701L28.245,288.701z"/>
	<path id="path74" inkscape:connector-curvature="0" fill="#FFFFFF" d="M382.114,510.303h5.037v21.968
		c0,3.814-0.434,6.851-1.301,9.099c-0.868,2.249-2.426,4.071-4.683,5.479c-2.257,1.417-5.213,2.116-8.878,2.116
		c-3.558,0-6.479-0.611-8.735-1.842c-2.266-1.221-3.886-3-4.851-5.328c-0.973-2.327-1.451-5.496-1.451-9.523v-21.968h5.027v21.941
		c0,3.302,0.31,5.735,0.92,7.293c0.611,1.566,1.674,2.771,3.16,3.62c1.496,0.85,3.328,1.274,5.487,1.274
		c3.7,0,6.337-0.841,7.913-2.522c1.566-1.673,2.354-4.895,2.354-9.665V510.303z M464.204,548.318v-38.015h25.649v4.487H469.24
		v11.771h17.834v4.487H469.24v17.269H464.204L464.204,548.318z M564.596,548.318v-38.015h14.269c2.902,0,5.23,0.39,6.983,1.15
		c1.761,0.771,3.133,1.957,4.124,3.559c0.991,1.593,1.496,3.266,1.496,5.019c0,1.619-0.442,3.15-1.328,4.584
		c-0.876,1.435-2.213,2.594-3.991,3.479c2.301,0.673,4.063,1.824,5.301,3.443c1.239,1.629,1.859,3.55,1.859,5.763
		c0,1.778-0.381,3.434-1.133,4.965s-1.682,2.708-2.788,3.54s-2.496,1.451-4.16,1.877c-1.664,0.425-3.709,0.637-6.134,0.637H564.596
		L564.596,548.318z M569.632,526.279h8.223c2.222,0,3.824-0.15,4.798-0.442c1.274-0.381,2.239-1.009,2.885-1.894
		c0.646-0.886,0.974-1.991,0.974-3.319c0-1.257-0.301-2.372-0.902-3.328c-0.61-0.965-1.479-1.619-2.594-1.974
		c-1.124-0.354-3.054-0.531-5.788-0.531h-7.595V526.279L569.632,526.279z M569.632,543.831h9.462c1.629,0,2.771-0.063,3.426-0.178
		c1.159-0.212,2.124-0.557,2.903-1.044c0.778-0.478,1.416-1.186,1.92-2.106c0.496-0.93,0.752-1.991,0.752-3.204
		c0-1.416-0.362-2.646-1.088-3.699c-0.727-1.045-1.735-1.779-3.027-2.204c-1.283-0.416-3.142-0.628-5.559-0.628h-8.789V543.831
		L569.632,543.831z M664.475,548.318l14.604-38.015h5.417l15.56,38.015h-5.735l-4.435-11.516H673.99l-4.169,11.516H664.475
		L664.475,548.318z M675.441,532.705h12.896l-3.974-10.523c-1.204-3.195-2.106-5.823-2.69-7.886
		c-0.487,2.442-1.169,4.858-2.054,7.267L675.441,532.705L675.441,532.705z"/>
	<path id="path76" inkscape:connector-curvature="0" fill="#FFFFFF" d="M372.483,480.038h-15.101v-84.985h15.101V480.038z
		 M374.415,370.119c0,2.985-0.879,5.385-2.635,7.229s-4.097,2.78-7.023,2.78c-2.75,0-5.004-0.937-6.789-2.81
		s-2.692-4.272-2.692-7.199c0-2.868,0.907-5.268,2.722-7.17s4.068-2.839,6.76-2.839c2.869,0,5.209,0.937,6.995,2.81
		C373.536,364.793,374.415,367.192,374.415,370.119L374.415,370.119z M394.607,480.038v-62.334c0-6.029-0.234-13.579-0.702-22.651
		h13.345l0.702,12.115h0.352c5.268-9.13,13.228-13.695,23.88-13.695c7.491,0,13.579,2.81,18.262,8.457
		c4.682,5.648,7.023,13.784,7.023,24.378v53.73h-15.101v-51.623c0-14.867-5.151-22.3-15.452-22.3c-4.858,0-8.926,2.02-12.233,6.058
		c-3.307,4.038-4.975,9.277-4.975,15.715v52.15H394.607L394.607,480.038z M496.8,480.038h-15.101v-73.572h-11.237v-11.413h11.237
		v-4.565c0-7.96,1.2-14.544,3.57-19.754c2.371-5.209,5.678-9.071,9.95-11.589c4.272-2.517,9.014-3.775,14.223-3.775
		c4.565,0,8.604,0.761,12.116,2.283l-2.107,11.589c-2.517-1.054-5.385-1.58-8.604-1.58c-9.365,0-14.048,7.492-14.048,22.475v4.917
		h17.911v11.413H496.8V480.038L496.8,480.038z M589.336,437.018c0,9.307-1.493,17.295-4.507,23.997
		c-3.015,6.702-7.287,11.823-12.789,15.335s-11.501,5.268-17.998,5.268c-10.301,0-18.642-3.922-25.021-11.734
		c-6.38-7.814-9.569-18.467-9.569-31.987c0-14.223,3.395-25.197,10.155-32.894c6.76-7.696,15.247-11.53,25.489-11.53
		c10.302,0,18.583,3.892,24.846,11.706C586.204,412.992,589.336,423.615,589.336,437.018L589.336,437.018z M534.552,437.545
		c0,9.248,1.814,16.974,5.414,23.178c3.6,6.205,8.341,9.307,14.252,9.307s10.682-3.161,14.281-9.452
		c3.6-6.292,5.385-14.019,5.385-23.207c0-9.072-1.697-16.74-5.121-22.974s-8.224-9.335-14.369-9.335
		c-6.263,0-11.12,3.073-14.604,9.219C536.308,420.426,534.552,428.18,534.552,437.545"/>
	<path id="path78" inkscape:connector-curvature="0" fill="#FFFFFF" d="M605.682,514.293l-1.755-11.94
		c4.623-0.526,8.398-1.785,11.325-3.774c2.926-1.99,4.975-5.151,6.116-9.453s1.697-11.765,1.697-22.417v-73.571h15.101v78.488
		c0,12.876-1.58,22.065-4.771,27.597c-3.189,5.53-7.374,9.394-12.555,11.589C615.661,513.005,610.599,514.176,605.682,514.293
		L605.682,514.293z M640.098,368.202c0,2.927-0.878,5.326-2.663,7.199s-4.127,2.81-6.995,2.81c-2.75,0-5.004-0.966-6.789-2.868
		c-1.785-1.901-2.692-4.272-2.692-7.141c0-2.926,0.907-5.326,2.722-7.199c1.814-1.872,4.126-2.809,6.936-2.809
		s5.093,0.936,6.849,2.809S640.098,365.276,640.098,368.202L640.098,368.202z M659.764,478.121v-60.578
		c0-6.848-0.234-14.983-0.702-24.406h13.345l0.702,14.925h0.526c1.756-5.092,4.536-9.131,8.341-12.087s7.872-4.419,12.203-4.419
		l3.688,0.176v14.926c-0.644-0.234-1.989-0.352-4.038-0.352c-5.209,0-9.657,2.166-13.374,6.496
		c-3.717,4.332-5.59,10.771-5.59,19.315v46.004H659.764L659.764,478.121z"/>
	<g id="g82" display="none">
		<g id="g88" transform="matrix(122.64151,0,0,64.81134,207.8782,183.3375)" display="inline">
			
				<image overflow="visible" enable-background="new    " width="512" height="271" id="image90" xlink:href="4CE27DFC.png"  transform="matrix(0.0024 0 0 0.0046 -0.7746 4.6994)">
			</image>
		</g>
	</g>
	<path fill="#FFFFFF" d="M318.335,373.224c-1.623-90.774-257.661-91.42-261.406,4.872c-2.382,61.236,51.882,101.558,53.042,155.615
		c0.516,24.055,39.19,35.458,78.292,35.199c0.423,0.003,0.841,0.017,1.266,0.017c5.546,0,10.95-0.318,16.162-0.91
		c34.59-3.355,64.95-16.06,63.476-37.396C264.234,459.21,313.155,427.581,318.335,373.224z M213.462,545.841
		c0,11.403-9.911,20.733-22.025,20.733h-11.013c-12.114,0-22.025-9.33-22.025-20.733v-142.31c0-11.404,9.911-20.734,22.025-20.734
		h11.013c12.115,0,22.025,9.33,22.025,20.734V545.841z M185.93,374.728c-16.913,0-30.629-14.369-30.629-32.088
		s13.716-32.088,30.629-32.088c16.914,0,30.629,14.369,30.629,32.088S202.843,374.728,185.93,374.728z"/>
</g>
</svg>
